<?xml version="1.0" encoding="UTF-8"?> <svg xmlns="http://www.w3.org/2000/svg" xmlns:xlink="http://www.w3.org/1999/xlink" version="1.1" id="Calque_1" x="0px" y="0px" viewBox="0 0 1110.2 76.5" style="enable-background:new 0 0 1110.2 76.5;" xml:space="preserve"> <style type="text/css"> .st0{fill:#FFFFFF;} </style> <g id="text-logo" transform="matrix(1.9211538461538462 0 0 1.9211538461538462 640.8583079142446 508.5138337101079)"> <g> <g id="text-logo-path-0" transform="matrix(1 0 0 1 0 0)"> <path class="st0" d="M-290.5-261.6c-1.2,0.1-2.1,0.2-2.6,0.4c-0.6,0.2-0.9,0.6-1.1,1.1c-0.2,0.6-0.3,1.5-0.3,2.8l0,0v24.8 c0,1.3,0.1,2.2,0.3,2.8c0.2,0.6,0.6,0.9,1.1,1.1c0.5,0.2,1.4,0.3,2.6,0.4l0,0v1c-1.5-0.1-3.6-0.1-6.4-0.1l0,0 c-2.9,0-5,0.1-6.4,0.1l0,0v-1c1.2-0.1,2.1-0.2,2.6-0.4c0.5-0.2,0.9-0.6,1.1-1.1c0.2-0.6,0.3-1.5,0.3-2.8l0,0v-26.8l-12,32.3h-0.8 l-12.6-32.4v26.4c0,1.3,0.1,2.3,0.3,2.9c0.2,0.6,0.6,1.1,1.3,1.4c0.6,0.3,1.6,0.5,2.9,0.5l0,0v1c-1.2-0.1-2.9-0.1-5.1-0.1l0,0 c-2,0-3.5,0.1-4.6,0.1l0,0v-1c1.2-0.1,2-0.2,2.6-0.5c0.6-0.3,1-0.7,1.1-1.4c0.2-0.6,0.3-1.6,0.3-2.9l0,0v-24.3 c0-1.3-0.1-2.2-0.3-2.8c-0.2-0.6-0.6-1-1.1-1.1c-0.6-0.2-1.4-0.3-2.6-0.4l0,0v-1c1.1,0.1,2.6,0.2,4.6,0.2l0,0 c1.7,0,3.2-0.1,4.2-0.2l0,0l11,29l10.8-28.8h2.4c2.7,0,4.8-0.1,6.4-0.2l0,0V-261.6z M-255-231.4c0.8,2.1,1.9,3.1,3.4,3.2l0,0v1 c-1.3-0.1-3.1-0.1-5.4-0.1l0,0c-2.9,0-5,0.1-6.4,0.1l0,0v-1c1.3-0.1,2.2-0.2,2.7-0.5c0.5-0.2,0.8-0.7,0.8-1.4l0,0 c0-0.6-0.2-1.4-0.6-2.4l0,0l-3.1-8.2h-12.1l-2,5.3c-0.7,1.8-1,3.2-1,4.1l0,0c0,1,0.4,1.8,1.1,2.2c0.7,0.5,1.8,0.7,3.3,0.8l0,0v1 c-1.9-0.1-3.8-0.1-5.8-0.1l0,0c-1.5,0-2.8,0.1-3.8,0.1l0,0v-1c1.7-0.4,3-1.8,4-4.3l0,0l11.7-30.3h0.8L-255-231.4z M-275.1-241.6 h11.3l-5.6-14.9L-275.1-241.6z M-214.4-262.6v1c-1.2,0.1-2,0.2-2.6,0.5c-0.6,0.3-0.9,0.8-1.1,1.4c-0.2,0.7-0.3,1.6-0.3,2.9l0,0 v29.8h-1.1l-21-32.4v26.4c0,1.3,0.1,2.3,0.3,2.9c0.2,0.6,0.6,1.1,1.3,1.4c0.6,0.3,1.6,0.5,3,0.5l0,0v1c-1.2-0.1-2.9-0.1-5.1-0.1 l0,0c-2,0-3.6,0.1-4.6,0.1l0,0v-1c1.2-0.1,2-0.2,2.6-0.5c0.6-0.3,1-0.7,1.2-1.4c0.2-0.6,0.3-1.6,0.3-2.9l0,0v-24.3 c0-1.3-0.1-2.2-0.3-2.8c-0.2-0.6-0.6-1-1.1-1.1c-0.6-0.2-1.4-0.3-2.6-0.4l0,0v-1c1.1,0.1,2.7,0.2,4.6,0.2l0,0 c1.5,0,2.8-0.1,3.9-0.2l0,0l17.7,27.2v-21.4c0-1.3-0.1-2.3-0.3-2.9c-0.2-0.6-0.6-1.1-1.3-1.4c-0.6-0.3-1.6-0.5-2.9-0.5l0,0v-1 c1.2,0.1,2.9,0.2,5.1,0.2l0,0C-217-262.4-215.5-262.5-214.4-262.6L-214.4-262.6z M-189.4-263.3c3.2,0,5.9,0.7,8.3,2.1 c2.4,1.4,4.2,3.5,5.5,6.2c1.3,2.7,2,6,2,9.7l0,0c0,3.7-0.7,6.9-2,9.8c-1.4,2.8-3.2,5-5.7,6.6c-2.4,1.6-5.2,2.3-8.2,2.3l0,0 c-3.2,0-5.9-0.7-8.3-2.1c-2.4-1.4-4.2-3.5-5.5-6.2c-1.3-2.7-2-6-2-9.7l0,0c0-3.7,0.7-6.9,2-9.8c1.3-2.8,3.2-5,5.7-6.6 C-195.2-262.5-192.5-263.3-189.4-263.3L-189.4-263.3z M-189.6-262.4c-2.1,0-4,0.7-5.6,2.2c-1.6,1.5-2.9,3.6-3.8,6.2 c-0.9,2.7-1.3,5.7-1.3,9.2l0,0c0,3.5,0.5,6.5,1.5,9.1c1,2.6,2.3,4.7,4,6.1s3.5,2.1,5.6,2.1l0,0c2.1,0,4-0.7,5.6-2.2 c1.6-1.5,2.9-3.6,3.8-6.2c0.9-2.7,1.3-5.7,1.3-9.1l0,0c0-3.5-0.5-6.5-1.5-9.2c-1-2.6-2.3-4.7-4-6.1 C-185.7-261.6-187.5-262.4-189.6-262.4L-189.6-262.4z M-151.4-262.6v1c-1.2,0.1-2.1,0.2-2.6,0.4c-0.6,0.2-0.9,0.6-1.1,1.1 c-0.2,0.6-0.3,1.5-0.3,2.8l0,0v24.8c0,1.3,0.1,2.2,0.3,2.8c0.2,0.6,0.6,0.9,1.1,1.1c0.5,0.2,1.4,0.3,2.6,0.4l0,0v1 c-1.5-0.1-3.7-0.1-6.4-0.1l0,0c-2.9,0-5,0.1-6.4,0.1l0,0v-1c1.2-0.1,2.1-0.2,2.6-0.4c0.5-0.2,0.9-0.6,1.1-1.1 c0.2-0.6,0.3-1.5,0.3-2.8l0,0v-24.8c0-1.3-0.1-2.2-0.3-2.8c-0.2-0.6-0.6-1-1.1-1.1c-0.6-0.2-1.4-0.3-2.6-0.4l0,0v-1 c1.4,0.1,3.5,0.2,6.4,0.2l0,0C-155.1-262.4-153-262.5-151.4-262.6L-151.4-262.6z M-112.1-230.2l0.8,0.5c-0.8,1.1-1.5,1.9-2.3,2.4 c-0.8,0.5-1.8,0.8-3.1,0.8l0,0c-1.4,0-2.5-0.4-3.4-1.2c-0.9-0.8-1.5-2.2-2-4.2l0,0l-1.1-5c-0.4-1.7-0.8-3.1-1.1-4 c-0.4-0.9-0.9-1.7-1.6-2.2s-1.7-0.8-3-0.8l0,0h-4.8v11.5c0,1.3,0.1,2.2,0.3,2.8c0.2,0.6,0.6,0.9,1.1,1.1c0.5,0.2,1.4,0.3,2.6,0.4 l0,0v1c-1.5-0.1-3.6-0.1-6.3-0.1l0,0c-2.9,0-5,0.1-6.4,0.1l0,0v-1c1.2-0.1,2.1-0.2,2.6-0.4c0.5-0.2,0.9-0.6,1.1-1.1 c0.2-0.6,0.3-1.5,0.3-2.8l0,0v-24.8c0-1.3-0.1-2.2-0.3-2.8c-0.2-0.6-0.6-1-1.1-1.1c-0.6-0.2-1.4-0.3-2.6-0.4l0,0v-1 c1.4,0.1,3.4,0.2,6.1,0.2l0,0l5.4-0.1c0.6,0,1.4,0,2.2,0l0,0c3.9,0,6.8,0.8,8.9,2.4c2.1,1.6,3.1,3.7,3.1,6.3l0,0 c0,1.3-0.3,2.6-0.9,3.9c-0.6,1.3-1.7,2.5-3.1,3.6c-1.5,1.1-3.3,1.8-5.7,2.1l0,0l0.6,0.1c2.2,0.4,3.8,1,4.8,2c1,1,1.7,2.5,2.2,4.6 l0,0l1.2,5.1c0.3,1.5,0.7,2.6,1.1,3.2c0.4,0.6,0.9,0.9,1.5,0.9l0,0c0.6,0,1-0.2,1.4-0.4C-113-229.1-112.6-229.5-112.1-230.2 L-112.1-230.2z M-129.8-261.6c-1,0-1.8,0.1-2.3,0.4c-0.5,0.2-0.9,0.7-1.1,1.2c-0.2,0.6-0.3,1.5-0.3,2.7l0,0v12.3h3.4 c3.3,0,5.6-0.7,6.8-2.2c1.2-1.5,1.8-3.5,1.8-6.1l0,0c0-2.7-0.6-4.8-1.9-6.2C-124.8-260.9-126.9-261.6-129.8-261.6L-129.8-261.6z M-71.4-245.9c3.7,0.5,6.3,1.6,7.9,3.2c1.6,1.6,2.4,3.6,2.4,5.8l0,0c0,1.9-0.5,3.6-1.5,5.1c-1,1.5-2.4,2.6-4.1,3.4 c-1.8,0.8-3.9,1.2-6.4,1.2l0,0c-0.9,0-1.7,0-2.3-0.1l0,0c-2.1-0.1-4.2-0.1-6.3-0.1l0,0c-2.7,0-4.8,0.1-6.2,0.1l0,0v-1 c1.2-0.1,2.1-0.2,2.6-0.4c0.5-0.2,0.9-0.6,1.1-1.1c0.2-0.6,0.3-1.5,0.3-2.8l0,0v-24.8c0-1.3-0.1-2.2-0.3-2.8 c-0.2-0.6-0.6-1-1.1-1.1c-0.6-0.2-1.4-0.3-2.6-0.4l0,0v-1c1.4,0.1,3.4,0.2,6.1,0.2l0,0l5.4-0.1c0.6,0,1.4,0,2.2,0l0,0 c3.4,0,6,0.7,7.8,2.1c1.8,1.4,2.7,3.3,2.7,5.7l0,0c0,1.9-0.6,3.7-1.8,5.2C-66.8-247.9-68.8-246.8-71.4-245.9L-71.4-245.9 L-71.4-245.9z M-75.6-261.6c-1,0-1.8,0.1-2.3,0.4c-0.5,0.2-0.9,0.7-1.1,1.2c-0.2,0.6-0.3,1.5-0.3,2.7l0,0v11.3h3.4 c2.7,0,4.6-0.7,5.7-2.2c1.1-1.5,1.6-3.5,1.6-5.9l0,0c0-2.5-0.5-4.4-1.6-5.6S-73.1-261.6-75.6-261.6L-75.6-261.6z M-75.5-228.3 c6.2,0,9.4-2.9,9.4-8.8l0,0c0-2.6-0.7-4.6-2.1-6c-1.4-1.4-3.7-2.1-6.8-2.1l0,0h-4.2v12.6c0,1.2,0.1,2.1,0.3,2.7 c0.2,0.6,0.6,1,1.1,1.2C-77.4-228.4-76.6-228.3-75.5-228.3L-75.5-228.3z M-39.4-262.6v1c-1.2,0.1-2.1,0.2-2.6,0.4 c-0.6,0.2-0.9,0.6-1.1,1.1c-0.2,0.6-0.3,1.5-0.3,2.8l0,0v24.8c0,1.3,0.1,2.2,0.3,2.8c0.2,0.6,0.6,0.9,1.1,1.1 c0.5,0.2,1.4,0.3,2.6,0.3l0,0h3.6c2.1,0,3.6-0.3,4.7-0.9c1.1-0.6,1.9-1.5,2.4-2.8s0.9-3.2,1.1-5.7l0,0h1.1 c-0.1,1-0.1,2.4-0.1,4.1l0,0c0,1.9,0.1,4,0.4,6.4l0,0c-2.3-0.1-6.1-0.1-11.5-0.1l0,0c-6.4,0-11.2,0.1-14.5,0.1l0,0v-1 c1.2-0.1,2.1-0.2,2.6-0.4c0.5-0.2,0.9-0.6,1.1-1.1c0.2-0.6,0.3-1.5,0.3-2.8l0,0v-24.8c0-1.3-0.1-2.2-0.3-2.8 c-0.2-0.6-0.6-1-1.1-1.1c-0.6-0.2-1.4-0.3-2.6-0.4l0,0v-1c1.4,0.1,3.5,0.2,6.4,0.2l0,0C-43.1-262.4-41-262.5-39.4-262.6 L-39.4-262.6z M8.5-231.4c0.8,2.1,2,3.1,3.5,3.2l0,0v1c-1.3-0.1-3.1-0.1-5.4-0.1l0,0c-2.9,0-5,0.1-6.4,0.1l0,0v-1 c1.3-0.1,2.2-0.2,2.7-0.5c0.6-0.2,0.8-0.7,0.8-1.4l0,0c0-0.6-0.2-1.4-0.6-2.4l0,0l-3-8.2H-12l-2,5.3c-0.7,1.8-1,3.2-1,4.1l0,0 c0,1,0.4,1.8,1.1,2.2c0.7,0.5,1.8,0.7,3.3,0.8l0,0v1c-1.9-0.1-3.8-0.1-5.8-0.1l0,0c-1.5,0-2.8,0.1-3.8,0.1l0,0v-1 c1.7-0.4,3-1.8,3.9-4.3l0,0l11.8-30.3h0.8L8.5-231.4z M-11.6-241.6h11.3l-5.6-14.9L-11.6-241.6z M34.7-263.3c2,0,3.7,0.3,5.1,0.9 c1.4,0.6,2.8,1.4,4.1,2.4l0,0c0.4,0.3,0.7,0.4,1,0.4l0,0c0.7,0,1.1-1,1.3-3l0,0h1.2c-0.1,2.2-0.2,6-0.2,11.5l0,0h-1.1 c-0.4-2.2-0.7-3.7-1-4.7c-0.3-0.9-0.8-1.9-1.5-2.7l0,0c-1-1.3-2.3-2.3-3.8-2.9c-1.5-0.6-3.2-1-5-1l0,0c-2.2,0-4.1,0.7-5.7,2.1 c-1.6,1.4-2.9,3.5-3.8,6.1c-0.9,2.7-1.3,5.8-1.3,9.3l0,0c0,3.6,0.5,6.8,1.4,9.3c1,2.6,2.3,4.6,4,5.9c1.7,1.4,3.7,2,5.8,2l0,0 c1.7,0,3.3-0.3,4.9-0.9c1.6-0.6,2.8-1.6,3.7-2.8l0,0c0.7-0.9,1.1-1.9,1.5-3s0.6-2.7,0.9-4.9l0,0h1.1c0,5.7,0.1,9.7,0.2,12l0,0 h-1.2c-0.1-1.1-0.2-1.8-0.4-2.3c-0.2-0.5-0.4-0.7-0.8-0.7l0,0c-0.3,0-0.6,0.1-1.1,0.4l0,0c-1.5,1.1-2.9,1.9-4.3,2.4 c-1.4,0.6-3,0.8-5,0.8l0,0c-3.2,0-5.9-0.7-8.3-2.1c-2.4-1.4-4.2-3.5-5.5-6.2c-1.3-2.7-2-6-2-9.7l0,0c0-3.7,0.7-6.9,2-9.8 c1.4-2.8,3.2-5,5.6-6.6C28.8-262.5,31.6-263.3,34.7-263.3L34.7-263.3z M83.8-231.2c0.6,0.8,1.2,1.5,1.9,2 c0.7,0.5,1.5,0.8,2.5,1.1l0,0v1c-1.6-0.1-3.6-0.1-6-0.1l0,0c-1.8,0-3.5,0.1-5.1,0.1l0,0v-1c0.8,0,1.4-0.1,1.8-0.3 c0.4-0.2,0.5-0.4,0.5-0.7l0,0c0-0.3-0.2-0.7-0.5-1.2l0,0l-7.3-11c-1-1.5-1.8-2.4-2.5-2.9c-0.7-0.4-1.6-0.7-2.8-0.8l0,0v12.6 c0,1.3,0.1,2.2,0.3,2.8c0.2,0.6,0.6,0.9,1.1,1.1c0.6,0.2,1.4,0.3,2.6,0.4l0,0v1c-1.5-0.1-3.6-0.1-6.3-0.1l0,0 c-2.9,0-5,0.1-6.4,0.1l0,0v-1c1.2-0.1,2.1-0.2,2.6-0.4c0.6-0.2,0.9-0.6,1.1-1.1c0.2-0.6,0.3-1.5,0.3-2.8l0,0v-24.8 c0-1.3-0.1-2.2-0.3-2.8c-0.2-0.6-0.6-1-1.1-1.1c-0.5-0.2-1.4-0.3-2.6-0.4l0,0v-1c1.4,0.1,3.5,0.2,6.4,0.2l0,0 c2.7,0,4.8-0.1,6.3-0.2l0,0v1c-1.2,0.1-2.1,0.2-2.6,0.4c-0.5,0.2-0.9,0.6-1.1,1.1c-0.2,0.6-0.3,1.5-0.3,2.8l0,0v11.2 c2.4-0.1,4.3-1,5.7-2.8l0,0l4.8-6.1c1.7-2.1,2.5-3.7,2.5-4.8l0,0c0-1.2-1-1.8-3.1-1.8l0,0v-1c1.9,0.1,3.8,0.2,5.8,0.2l0,0 c1.8,0,3.3-0.1,4.2-0.2l0,0v1c-1.1,0.2-2.1,0.5-3.1,1.1c-1,0.6-1.9,1.4-2.8,2.6l0,0l-8.1,10.4L83.8-231.2z M106.1-263.1 c1.5,0,2.6,0.2,3.5,0.5c0.9,0.3,1.7,0.8,2.6,1.4l0,0c0.7,0.5,1.3,0.7,1.7,0.7l0,0c0.3,0,0.5-0.2,0.7-0.5c0.2-0.3,0.3-0.9,0.4-1.7 l0,0h1.1c-0.2,1.9-0.3,5.3-0.2,10.2l0,0h-1.1c-0.2-2.7-1-5-2.3-6.8c-1.3-1.8-3.3-2.8-5.9-2.8l0,0c-1.8,0-3.3,0.5-4.4,1.6 c-1.1,1.1-1.7,2.5-1.7,4.2l0,0c0,1.3,0.3,2.4,0.9,3.3c0.6,0.9,1.3,1.7,2.2,2.4c0.9,0.7,2.2,1.5,3.8,2.6l0,0l1.5,0.9 c2.1,1.3,3.8,2.4,5,3.4c1.2,1,2.2,2.1,2.9,3.4c0.7,1.3,1.1,2.8,1.1,4.5l0,0c0,3-1,5.4-3,7c-2,1.7-4.5,2.5-7.6,2.5l0,0 c-1.6,0-2.9-0.2-3.9-0.5c-1-0.3-2-0.8-2.9-1.3l0,0c-0.7-0.5-1.3-0.7-1.7-0.7l0,0c-0.3,0-0.5,0.2-0.7,0.5 c-0.2,0.4-0.3,0.9-0.4,1.7l0,0h-1.1c0.1-1.8,0.2-5.8,0.2-12l0,0h1.2c0.2,3.4,1.1,6.1,2.5,8.2c1.4,2.1,3.6,3.1,6.6,3.1l0,0 c1.8,0,3.3-0.6,4.6-1.7c1.3-1.1,1.9-2.8,1.9-5l0,0c0-1.9-0.6-3.4-1.9-4.8c-1.2-1.3-3.2-2.8-5.9-4.4l0,0c-2-1.2-3.6-2.3-4.8-3.2 c-1.2-0.9-2.2-2.1-3-3.4c-0.8-1.3-1.1-2.9-1.1-4.6l0,0c0-2.8,0.9-4.9,2.7-6.4C101.2-262.4,103.4-263.1,106.1-263.1L106.1-263.1z M166.9-262.4c1.5,0,2.7-0.1,3.8-0.2l0,0v1c-1.9,0.4-3.2,1.9-3.9,4.4l0,0l-9.5,30.3h-0.4h-0.4l-8.7-25.8l-7.9,25.8h-0.4H139 l-10.6-31.4c-0.7-2.1-1.9-3.1-3.4-3.2l0,0v-1c1.4,0.1,3.1,0.2,5.4,0.2l0,0c2.4,0,4.2-0.1,5.4-0.2l0,0v1c-0.9,0.1-1.5,0.2-1.9,0.5 c-0.4,0.3-0.6,0.7-0.6,1.2l0,0c0,0.5,0.2,1.4,0.6,2.5l0,0l7.3,22.3l6.1-19.4l-1.4-3.9c-0.7-2.1-1.6-3.1-3-3.2l0,0v-1 c1.2,0.1,2.8,0.2,4.9,0.2l0,0c2.9,0,5-0.1,6.4-0.2l0,0v1c-1.3,0.1-2.1,0.2-2.6,0.4c-0.5,0.2-0.8,0.7-0.8,1.4l0,0 c0,0.6,0.2,1.4,0.5,2.4l0,0l7.2,22.2l6.1-19.3c0.5-1.6,0.8-3,0.8-4.1l0,0c0-1.1-0.3-1.9-1-2.3c-0.7-0.4-1.8-0.7-3.2-0.7l0,0v-1 C163-262.5,164.9-262.4,166.9-262.4L166.9-262.4z M201-231.4c0.8,2.1,2,3.1,3.5,3.2l0,0v1c-1.3-0.1-3.1-0.1-5.4-0.1l0,0 c-2.9,0-5,0.1-6.4,0.1l0,0v-1c1.3-0.1,2.2-0.2,2.7-0.5c0.6-0.2,0.8-0.7,0.8-1.4l0,0c0-0.6-0.2-1.4-0.6-2.4l0,0l-3-8.2h-12.1 l-2.1,5.3c-0.7,1.8-1,3.2-1,4.1l0,0c0,1,0.4,1.8,1.1,2.2c0.7,0.5,1.8,0.7,3.3,0.8l0,0v1c-1.9-0.1-3.8-0.1-5.8-0.1l0,0 c-1.5,0-2.8,0.1-3.8,0.1l0,0v-1c1.7-0.4,3-1.8,4-4.3l0,0l11.8-30.3h0.8L201-231.4z M180.9-241.6h11.3l-5.6-14.9L180.9-241.6z M241.7-262.6v1c-1.2,0.1-2,0.2-2.6,0.5c-0.6,0.3-1,0.8-1.2,1.4c-0.2,0.7-0.3,1.6-0.3,2.9l0,0v29.8h-1.1l-21-32.4v26.4 c0,1.3,0.1,2.3,0.3,2.9c0.2,0.6,0.6,1.1,1.3,1.4c0.6,0.3,1.6,0.5,3,0.5l0,0v1c-1.2-0.1-2.9-0.1-5.1-0.1l0,0c-2,0-3.5,0.1-4.6,0.1 l0,0v-1c1.2-0.1,2-0.2,2.6-0.5c0.6-0.3,1-0.7,1.2-1.4c0.2-0.6,0.3-1.6,0.3-2.9l0,0v-24.3c0-1.3-0.1-2.2-0.3-2.8 c-0.2-0.6-0.6-1-1.1-1.1c-0.5-0.2-1.4-0.3-2.6-0.4l0,0v-1c1.1,0.1,2.6,0.2,4.6,0.2l0,0c1.5,0,2.8-0.1,3.9-0.2l0,0l17.7,27.2 v-21.4c0-1.3-0.1-2.3-0.3-2.9c-0.2-0.6-0.6-1.1-1.3-1.4c-0.6-0.3-1.6-0.5-3-0.5l0,0v-1c1.2,0.1,2.9,0.2,5.1,0.2l0,0 C239-262.4,240.6-262.5,241.7-262.6L241.7-262.6z"></path> </g> </g> </g> </svg> 